<?xml version="1.0" standalone="no"?><!DOCTYPE svg PUBLIC "-//W3C//DTD SVG 1.1//EN" "http://www.w3.org/Graphics/SVG/1.1/DTD/svg11.dtd"><svg t="1772171092813" class="icon" viewBox="0 0 1024 1024" version="1.1" xmlns="http://www.w3.org/2000/svg" p-id="4851" width="32" height="32" xmlns:xlink="http://www.w3.org/1999/xlink"><path d="M895.3 127.3v768h-768v-768h768m0-64h-768c-35.3 0-64 28.7-64 64v768c0 35.3 28.7 64 64 64h768c35.3 0 64-28.7 64-64v-768c0-35.3-28.6-64-64-64z" p-id="4852" fill="#1296db"></path><path d="M262.8 369.9h68L365 502.3c8.5 31.1 14.2 59.8 22.8 91.1h1.7c8.6-31.4 14.7-60 22.8-91.1l33.5-132.4h65.7l-85.7 284.2h-77.2l-85.8-284.2zM538.4 369.9h65.8l74.1 141.3 28.1 62.4h1.7c-3-30.1-8.2-69.9-8.2-103.4V369.9h61.2v284.2h-65.8l-74.1-141.7-28.1-62.1h-1.7c3 31.3 8.2 69.4 8.2 102.9v100.9h-61.2V369.9z" p-id="4853" fill="#1296db"></path></svg>